D:\school\WTK\thesis\model\3dpredictsim\Results\batch_windlass\Pog_s1_tmt_bCst_d05_k1000_WL10_ig24_act_TTC_GRF.mot
nRows=30
nColumns=19

name D:\school\WTK\thesis\model\3dpredictsim\Results\batch_windlass\Pog_s1_tmt_bCst_d05_k1000_WL10_ig24_act_TTC_GRF.mot
datacolumns 19
datarows 30
range 0.0000000000 0.3419790786
endheader
time 	ground_force_vx	ground_force_vy	ground_force_vz	ground_force_px	ground_force_py	ground_force_pz	1_ground_force_vx	1_ground_force_vy	1_ground_force_vz	1_ground_force_px	1_ground_force_py	1_ground_force_pz	ground_torque_x	ground_torque_y	ground_torque_z	1_ground_torque_x	1_ground_torque_y	1_ground_torque_z
        0.0000000000	      -43.3556774115	       31.2415329915	        5.9563462542	        0.1506936764	        0.0000000000	        0.0674331649	       91.7454408254	      372.3481493240	       -0.7714215102	       -0.3678996178	        0.0000000000	       -0.0331417071	        0.0000000000	        0.0000000000	        0.0000000000	        0.0000000000	        0.0000000000	        0.0000000000	
        0.0117923820	     -103.1383509401	       88.4242157267	       17.6517087288	        0.1626957308	        0.0000000000	        0.0661089024	       57.7412455165	      258.0790399636	      -11.1839563872	       -0.3562796867	        0.0000000000	       -0.0279409564	        0.0000000000	        0.0000000000	        0.0000000000	        0.0000000000	        0.0000000000	        0.0000000000	
        0.0235847640	     -130.3676797498	      270.0894303143	       24.6467614498	        0.1820017445	        0.0000000000	        0.0670363383	       38.8653681654	      200.2011038905	      -21.5201835492	       -0.3493089388	        0.0000000000	       -0.0247642285	        0.0000000000	        0.0000000000	        0.0000000000	        0.0000000000	        0.0000000000	        0.0000000000	
        0.0353771461	      -92.5324119147	      609.7992342120	      -12.6295688602	        0.1923525818	        0.0000000000	        0.0670626160	       36.2423283315	      165.9385370524	      -19.9836528365	       -0.3491337081	        0.0000000000	       -0.0246938806	        0.0000000000	        0.0000000000	        0.0000000000	        0.0000000000	        0.0000000000	        0.0000000000	
        0.0471695281	     -138.2570495260	      873.8803004289	      -29.2429435661	        0.2043712305	        0.0000000000	        0.0657692821	       25.7267095813	      120.2744748337	      -17.2231568969	       -0.3491074535	        0.0000000000	       -0.0246136154	        0.0000000000	        0.0000000000	        0.0000000000	        0.0000000000	        0.0000000000	        0.0000000000	
        0.0589619101	     -167.8148987845	      990.0572165908	      -29.0109838657	        0.2163826369	        0.0000000000	        0.0635615433	        5.4638148363	       66.2585536144	      -14.5357483559	       -0.3500404075	        0.0000000000	       -0.0248817917	        0.0000000000	        0.0000000000	        0.0000000000	        0.0000000000	        0.0000000000	        0.0000000000	
        0.0707542921	     -164.2592400518	      957.7360822606	      -24.2905353924	        0.2227484897	        0.0000000000	        0.0620760767	       -5.6015989993	       10.1810970774	       -2.3660985788	       -0.3537257993	        0.0000000000	       -0.0241871623	        0.0000000000	        0.0000000000	        0.0000000000	        0.0000000000	        0.0000000000	        0.0000000000	
        0.0825466741	     -137.1787581861	      874.1933167501	      -21.9547887484	        0.2255896117	        0.0000000000	        0.0613545070	       -1.4002109719	        1.1704940384	        0.0776769289	        0.0000000000	        0.0000000000	        0.0000000000	        0.0000000000	        0.0000000000	        0.0000000000	        0.0000000000	        0.0000000000	        0.0000000000	
        0.0943390562	     -117.7551546212	      803.7812430505	      -19.8741491137	        0.2286678719	        0.0000000000	        0.0608629206	       -6.7843539068	        4.8819355069	        0.4818108390	        0.0000000000	        0.0000000000	        0.0000000000	        0.0000000000	        0.0000000000	        0.0000000000	        0.0000000000	        0.0000000000	        0.0000000000	
        0.1061314382	     -104.1601922579	      759.4366283452	      -20.2837197895	        0.2316797243	        0.0000000000	        0.0604762098	       -5.4413956649	        3.4509552213	        0.4175561216	        0.0000000000	        0.0000000000	        0.0000000000	        0.0000000000	        0.0000000000	        0.0000000000	        0.0000000000	        0.0000000000	        0.0000000000	
        0.1179238202	      -90.1957268449	      724.7726816028	      -21.2504178031	        0.2344706791	        0.0000000000	        0.0602052395	       -3.8954529970	        2.2514696616	        0.3183592405	        0.0000000000	        0.0000000000	        0.0000000000	        0.0000000000	        0.0000000000	        0.0000000000	        0.0000000000	        0.0000000000	        0.0000000000	
        0.1297162022	      -77.2909016576	      695.9222210973	      -21.5350570877	        0.2377555556	        0.0000000000	        0.0599465613	       -2.9646579736	        1.5881862572	        0.2435069184	        0.0000000000	        0.0000000000	        0.0000000000	        0.0000000000	        0.0000000000	        0.0000000000	        0.0000000000	        0.0000000000	        0.0000000000	
        0.1415085842	      -65.9167856252	      672.8444760816	      -22.4322603158	        0.2423401859	        0.0000000000	        0.0595116099	       -2.4103066983	        1.2217344199	        0.1970106797	        0.0000000000	        0.0000000000	        0.0000000000	        0.0000000000	        0.0000000000	        0.0000000000	        0.0000000000	        0.0000000000	        0.0000000000	
        0.1533009663	      -57.2960053636	      653.8553497491	      -22.7504735207	        0.2479929663	        0.0000000000	        0.0588897895	       -1.7635219569	        0.8564355501	        0.1414778623	        0.0000000000	        0.0000000000	        0.0000000000	        0.0000000000	        0.0000000000	        0.0000000000	        0.0000000000	        0.0000000000	        0.0000000000	
        0.1650933483	      -50.5763005319	      637.5745340006	      -22.8215872845	        0.2541148645	        0.0000000000	        0.0581503240	       -1.2704179011	        0.5964293580	        0.0990337181	        0.0000000000	        0.0000000000	        0.0000000000	        0.0000000000	        0.0000000000	        0.0000000000	        0.0000000000	        0.0000000000	        0.0000000000	
        0.1768857303	      -45.0725846303	      623.2164869758	      -22.4919394400	        0.2603813202	        0.0000000000	        0.0573448056	       -0.9502218423	        0.4342440903	        0.0709537020	        0.0000000000	        0.0000000000	        0.0000000000	        0.0000000000	        0.0000000000	        0.0000000000	        0.0000000000	        0.0000000000	        0.0000000000	
        0.1886781123	      -40.0648883169	      610.4086130852	      -21.8900126316	        0.2666218785	        0.0000000000	        0.0565049583	       -0.7539447524	        0.3370341037	        0.0530933762	        0.0000000000	        0.0000000000	        0.0000000000	        0.0000000000	        0.0000000000	        0.0000000000	        0.0000000000	        0.0000000000	        0.0000000000	
        0.2004704943	      -36.7527032949	      600.6250226832	      -21.0178964744	        0.2726991901	        0.0000000000	        0.0556522978	       -0.6363451801	        0.2791298181	        0.0415540081	        0.0000000000	        0.0000000000	        0.0000000000	        0.0000000000	        0.0000000000	        0.0000000000	        0.0000000000	        0.0000000000	        0.0000000000	
        0.2122628764	      -33.3588038724	      592.5127183683	      -20.2622616258	        0.2783867396	        0.0000000000	        0.0548348534	       -0.5744743061	        0.2476819910	        0.0342951771	        0.0000000000	        0.0000000000	        0.0000000000	        0.0000000000	        0.0000000000	        0.0000000000	        0.0000000000	        0.0000000000	        0.0000000000	
        0.2240552584	      -29.7118059576	      584.4955816547	      -19.5623406306	        0.2837603393	        0.0000000000	        0.0540474596	       -0.5596250798	        0.2373417510	        0.0302850212	        0.0000000000	        0.0000000000	        0.0000000000	        0.0000000000	        0.0000000000	        0.0000000000	        0.0000000000	        0.0000000000	        0.0000000000	
        0.2358476404	      -26.1304516848	      577.2849742048	      -19.1739813969	        0.2889239855	        0.0000000000	        0.0532700841	       -0.5841308006	        0.2438560473	        0.0285249253	        0.0000000000	        0.0000000000	        0.0000000000	        0.0000000000	        0.0000000000	        0.0000000000	        0.0000000000	        0.0000000000	        0.0000000000	
        0.2476400224	      -22.7319475502	      570.6893449752	      -19.0510990270	        0.2938889883	        0.0000000000	        0.0524999074	       -0.6412256230	        0.2637830057	        0.0282311624	        0.0000000000	        0.0000000000	        0.0000000000	        0.0000000000	        0.0000000000	        0.0000000000	        0.0000000000	        0.0000000000	        0.0000000000	
        0.2594324044	      -19.5148319918	      564.5768363816	      -19.1520175384	        0.2986526429	        0.0000000000	        0.0517384741	       -0.7242620217	        0.2940382212	        0.0288543149	        0.0000000000	        0.0000000000	        0.0000000000	        0.0000000000	        0.0000000000	        0.0000000000	        0.0000000000	        0.0000000000	        0.0000000000	
        0.2712247865	      -16.4722053118	      558.9457839449	      -19.3060374846	        0.3031974522	        0.0000000000	        0.0509926549	       -0.8262170443	        0.3316307394	        0.0299836472	        0.0000000000	        0.0000000000	        0.0000000000	        0.0000000000	        0.0000000000	        0.0000000000	        0.0000000000	        0.0000000000	        0.0000000000	
        0.2830171685	      -13.6006252601	      553.9731102992	      -19.3200665737	        0.3074683769	        0.0000000000	        0.0502777187	       -0.9369781826	        0.3725592206	        0.0310370889	        0.0000000000	        0.0000000000	        0.0000000000	        0.0000000000	        0.0000000000	        0.0000000000	        0.0000000000	        0.0000000000	        0.0000000000	
        0.2948095505	      -10.8712428647	      549.9555901759	      -19.1618526596	        0.3113913007	        0.0000000000	        0.0496084511	       -1.0450765573	        0.4124514843	        0.0313500588	        0.0000000000	        0.0000000000	        0.0000000000	        0.0000000000	        0.0000000000	        0.0000000000	        0.0000000000	        0.0000000000	        0.0000000000	
        0.3066019325	       -8.0026774341	      548.1595010359	      -18.6883229531	        0.3149095017	        0.0000000000	        0.0489901903	       -1.1437651444	        0.4488528414	        0.0304878236	        0.0000000000	        0.0000000000	        0.0000000000	        0.0000000000	        0.0000000000	        0.0000000000	        0.0000000000	        0.0000000000	        0.0000000000	
        0.3183943145	       -4.6966196166	      548.4011642182	      -18.0367668510	        0.3179013512	        0.0000000000	        0.0484379641	       -1.2338818139	        0.4821984497	        0.0279422289	        0.0000000000	        0.0000000000	        0.0000000000	        0.0000000000	        0.0000000000	        0.0000000000	        0.0000000000	        0.0000000000	        0.0000000000	
        0.3301866966	       -0.7986877143	      549.7767555952	      -17.5781836874	        0.3204079118	        0.0000000000	        0.0479395540	       -1.3301480218	        0.5182193638	        0.0236677098	        0.0000000000	        0.0000000000	        0.0000000000	        0.0000000000	        0.0000000000	        0.0000000000	        0.0000000000	        0.0000000000	        0.0000000000	
        0.3419790786	        3.7453007572	      552.9690883091	      -16.4348955691	        0.3226995182	        0.0000000000	        0.0474643629	       -1.4555965683	        0.5658851567	        0.0176763160	        0.0000000000	        0.0000000000	        0.0000000000	        0.0000000000	        0.0000000000	        0.0000000000	        0.0000000000	        0.0000000000	        0.0000000000	
